<svg width="96" height="96" viewBox="0 0 96 96" fill="none" xmlns="http://www.w3.org/2000/svg">
<g clip-path="url(#clip0_1020_114)">
<path fill-rule="evenodd" clip-rule="evenodd" d="M45.125 93.8633L35.094 84.7071C34.7659 84.4141 34.4299 84.1915 34.0745 84.043C33.7073 83.8946 33.3167 83.8126 32.8831 83.7891L19.3131 83.1797C17.817 83.1172 16.4811 82.4844 15.5045 81.5078C14.524 80.5274 13.9029 79.1914 13.8326 77.6992L13.2232 64.1292C13.2037 63.6996 13.1178 63.2972 12.9693 62.9378C12.8209 62.5785 12.6021 62.2425 12.3053 61.9184L3.14906 51.8873C2.14906 50.7935 1.64516 49.4029 1.64516 48.0123C1.64516 46.6217 2.14907 45.2428 3.14906 44.1373L12.3053 34.1063C12.5982 33.7782 12.8209 33.4423 12.9693 33.0868C13.1178 32.7197 13.1998 32.329 13.2232 31.8955L13.8326 18.3254C13.8951 16.8293 14.5279 15.4934 15.5045 14.5168C16.485 13.5364 17.8209 12.9152 19.3131 12.8449L32.8831 12.2356C33.3128 12.216 33.7151 12.1301 34.0745 11.9817C34.4339 11.8332 34.7698 11.6145 35.094 11.3176L45.125 2.16139C46.2188 1.16139 47.6094 0.657494 49 0.657494C50.3906 0.657494 51.7695 1.1614 52.875 2.16139L62.906 11.3176C63.2341 11.6106 63.5701 11.8332 63.9255 11.9817C64.2927 12.1301 64.6833 12.2121 65.1169 12.2356L78.6869 12.8449C80.183 12.9074 81.5189 13.5403 82.4955 14.5168C83.476 15.4973 84.0971 16.8332 84.1674 18.3254L84.7768 31.8955C84.7963 32.3251 84.8823 32.7275 85.0307 33.0868C85.1791 33.4462 85.3979 33.7822 85.6948 34.1063L94.851 44.1373C95.851 45.2311 96.3549 46.6217 96.3549 48.0123C96.3549 49.4029 95.8509 50.7818 94.851 51.8873L85.6948 61.9184C85.4018 62.2465 85.1791 62.5824 85.0307 62.9378C84.8823 63.305 84.8002 63.6957 84.7768 64.1292L84.1674 77.6992C84.1049 79.1953 83.4721 80.5312 82.4955 81.5078C81.515 82.4883 80.1791 83.1094 78.6869 83.1797L65.1169 83.7891C64.6872 83.8086 64.2849 83.8946 63.9255 84.043C63.5661 84.1915 63.2302 84.4102 62.906 84.7071L52.875 93.8633C51.7812 94.8633 50.3906 95.3672 49 95.3672C47.6094 95.3672 46.2305 94.8633 45.125 93.8633ZM49 65.4653L52.5273 62.2426C53.0859 61.727 53.7265 61.3285 54.4101 61.0434C55.0937 60.7582 55.8203 60.602 56.5898 60.559L61.3476 60.3481L61.5585 55.5903C61.5898 54.8207 61.7578 54.0942 62.0429 53.4106C62.3281 52.727 62.7265 52.0825 63.2421 51.5278L66.4648 48.0005L63.2421 44.4732C62.7265 43.9146 62.3281 43.274 62.0429 42.5904C61.7578 41.9068 61.6015 41.1802 61.5585 40.4107L61.3476 35.6529L56.5898 35.4419C55.8203 35.4107 55.0937 35.2427 54.4101 34.9576C53.7265 34.6724 53.082 34.274 52.5273 33.7584L49 30.5356L45.4727 33.7584C44.9141 34.274 44.2735 34.6724 43.5899 34.9576C42.9063 35.2427 42.168 35.399 41.4102 35.4419L36.6524 35.6529L36.4415 40.4107C36.4102 41.1802 36.2422 41.9068 35.9571 42.5904C35.6719 43.274 35.2735 43.9185 34.7579 44.4732L31.5352 48.0005L34.7579 51.5278C35.2735 52.0864 35.6719 52.727 35.9571 53.4106C36.2422 54.0942 36.3985 54.8208 36.4415 55.5903L36.6524 60.3481L41.4102 60.559C42.1797 60.5903 42.9063 60.7582 43.5899 61.0434C44.2735 61.3285 44.918 61.727 45.4727 62.2426L49 65.4653ZM54.0117 63.895C54.3906 63.5473 54.8008 63.2856 55.2422 63.1059C55.6953 62.9145 56.168 62.813 56.6719 62.7895L63.461 62.4848L63.7657 55.6957C63.7852 55.1918 63.8907 54.7074 64.0821 54.266C64.2618 53.8246 64.5352 53.4145 64.8829 53.0355L69.461 48.0238L64.8829 43.0121C64.5352 42.6332 64.2735 42.2231 64.0821 41.7816C63.8907 41.3285 63.7891 40.8558 63.7657 40.3519L63.461 33.5628L56.6719 33.2581C56.168 33.2386 55.6836 33.1331 55.2422 32.9417C54.8008 32.762 54.3906 32.4886 54.0117 32.1409L49 27.5628L43.9883 32.1409C43.6094 32.4886 43.1992 32.7503 42.7578 32.9417C42.3047 33.1331 41.832 33.2347 41.3281 33.2581L34.539 33.5628L34.2343 40.3519C34.2148 40.8558 34.1093 41.3402 33.9179 41.7816C33.7382 42.223 33.4648 42.6332 33.1171 43.0121L28.539 48.0238L33.1171 53.0355C33.4648 53.4144 33.7265 53.8246 33.9179 54.266C34.1093 54.7191 34.2109 55.1918 34.2343 55.6957L34.539 62.4848L41.3281 62.7895C41.832 62.8091 42.3164 62.9145 42.7578 63.1059C43.1992 63.2856 43.6094 63.559 43.9883 63.895L49 68.4731L54.0117 63.895ZM49 74.012L54.4414 69.0432C55.2187 68.3362 56.082 67.7815 57.0312 67.3909C57.9687 67.0003 58.9804 66.7815 60.0312 66.7268L67.3906 66.3909L67.7265 59.0315C67.7773 57.9807 68 56.969 68.3906 56.0315C68.7812 55.0823 69.3398 54.2229 70.0429 53.4417L75.0117 48.0003L70.0429 42.5589C69.3359 41.7815 68.7812 40.9183 68.3906 39.9691C68 39.0316 67.7812 38.0199 67.7265 36.9691L67.3906 29.6097L60.0312 29.2737C58.9804 29.223 57.9687 29.0003 57.0312 28.6097C56.082 28.2191 55.2226 27.6605 54.4414 26.9574L49 21.9886L43.5586 26.9574C42.7813 27.6644 41.918 28.2191 40.9688 28.6097C40.0313 29.0003 39.0196 29.2191 37.9688 29.2737L30.6094 29.6097L30.2735 36.9691C30.2227 38.0199 30 39.0316 29.6094 39.9691C29.2188 40.9183 28.6602 41.7777 27.9571 42.5589L22.9883 48.0003L27.9571 53.4417C28.6641 54.219 29.2188 55.0823 29.6094 56.0315C30 56.969 30.2188 57.9807 30.2735 59.0315L30.6094 66.3909L37.9688 66.7268C39.0196 66.7776 40.0313 67.0003 40.9688 67.3909C41.918 67.7815 42.7774 68.3401 43.5586 69.0432L49 74.012ZM55.9375 70.6722C56.5273 70.137 57.1797 69.7152 57.875 69.43C58.582 69.137 59.3281 68.9769 60.1289 68.9339L69.5195 68.512L69.9414 59.1214C69.9726 58.3324 70.1406 57.5745 70.4375 56.8675C70.7226 56.1722 71.1445 55.5198 71.6797 54.93L78.0156 47.9925L71.6797 41.055C71.1445 40.4652 70.7226 39.8128 70.4375 39.1175C70.1445 38.4105 69.9844 37.6527 69.9414 36.8636L69.5195 27.473L60.1289 27.0511C59.3398 27.0199 58.582 26.8519 57.875 26.555C57.1797 26.2699 56.5273 25.848 55.9375 25.3128L49 18.9769L42.0625 25.3128C41.4727 25.848 40.8203 26.2699 40.125 26.555C39.418 26.848 38.6602 27.0082 37.8711 27.0511L28.4805 27.473L28.0586 36.8636C28.0274 37.6527 27.8594 38.4105 27.5625 39.1175C27.2774 39.8128 26.8555 40.4652 26.3203 41.055L19.9844 47.9925L26.3203 54.93C26.8555 55.5199 27.2774 56.1722 27.5625 56.8675C27.8555 57.5745 28.0157 58.3323 28.0586 59.1214L28.4805 68.512L37.8711 68.9339C38.6602 68.9651 39.418 69.1331 40.125 69.43C40.8203 69.7151 41.4727 70.137 42.0625 70.6722L49 77.0081L55.9375 70.6722ZM49 85.6842L57.0742 78.317C58.1367 77.3482 59.3281 76.5904 60.6211 76.0553C61.9063 75.5201 63.2852 75.2115 64.7383 75.149L75.6523 74.6529L76.1484 63.7389C76.2109 62.2975 76.5156 60.9186 77.0546 59.6217C77.5898 58.3287 78.3476 57.1373 79.3163 56.0748L86.6835 48.0006L79.3163 39.9264C78.3476 38.8639 77.5897 37.6725 77.0546 36.3795C76.5195 35.0943 76.2109 33.7154 76.1484 32.2623L75.6523 21.3483L64.7383 20.8523C63.2969 20.7898 61.918 20.4851 60.6211 19.946C59.3281 19.4108 58.1367 18.653 57.0742 17.6843L49 10.3171L40.9258 17.6843C39.8633 18.6531 38.6719 19.4109 37.3789 19.946C36.0937 20.4812 34.7148 20.7898 33.2617 20.8523L22.3477 21.3483L21.8516 32.2623C21.7891 33.7037 21.4844 35.0826 20.9454 36.3795C20.4102 37.6725 19.6524 38.8639 18.6837 39.9264L11.3165 48.0006L18.6837 56.0748C19.6524 57.1373 20.4103 58.3287 20.9454 59.6217C21.4805 60.9069 21.7891 62.2858 21.8516 63.7389L22.3477 74.6529L33.2617 75.149C34.7031 75.2115 36.082 75.5162 37.3789 76.0553C38.6719 76.5904 39.8633 77.3483 40.9258 78.317L49 85.6842ZM58.5586 79.9498C59.4414 79.149 60.4102 78.5279 61.4531 78.0865C62.5039 77.6568 63.6328 77.4029 64.8203 77.3482L77.7583 76.7584L78.3481 63.8204C78.3989 62.629 78.6528 61.504 79.0864 60.4532C79.5161 59.4102 80.1372 58.4337 80.9497 57.5587L89.688 47.9884L80.9497 38.4181C80.1489 37.5353 79.5278 36.5665 79.0864 35.5236C78.6567 34.4728 78.4028 33.3439 78.3481 32.1564L77.7583 19.2184L64.8203 18.6285C63.6289 18.5777 62.5039 18.3238 61.4531 17.8902C60.4101 17.4606 59.4336 16.8394 58.5586 16.0269L49 7.28864L39.4414 16.0269C38.5586 16.8277 37.5898 17.4488 36.5469 17.8902C35.4961 18.3199 34.3672 18.5738 33.1797 18.6285L20.2417 19.2184L19.6519 32.1564C19.6011 33.3478 19.3472 34.4728 18.9136 35.5236C18.4839 36.5666 17.8628 37.5431 17.0503 38.4181L8.31199 47.9884L17.0503 57.5587C17.8511 58.4415 18.4722 59.4103 18.9136 60.4532C19.3433 61.504 19.5972 62.6329 19.6519 63.8204L20.2417 76.7584L33.1797 77.3482C34.3711 77.399 35.4961 77.6529 36.5469 78.0865C37.5899 78.5162 38.5664 79.1373 39.4414 79.9498L49 88.6881L58.5586 79.9498ZM36.5896 83.0631L46.6206 92.2193C47.2925 92.8404 48.1479 93.1451 48.9995 93.1451C49.8511 93.1451 50.7065 92.8404 51.3784 92.2193L61.4094 83.0631C61.9133 82.5982 62.4719 82.2428 63.0813 81.9889C63.6829 81.735 64.3235 81.5983 65.0188 81.567L78.5888 80.9576C79.4951 80.9147 80.3154 80.5357 80.9169 79.9264C81.5185 79.3249 81.9052 78.5045 81.9481 77.5983L82.5575 64.0283C82.5887 63.333 82.7255 62.6924 82.9794 62.0908C83.2333 61.4814 83.5887 60.9228 84.0536 60.4189L93.2098 50.3879C93.8309 49.716 94.1355 48.8606 94.1355 48.009C94.1355 47.1575 93.8309 46.302 93.2098 45.6301L84.0536 35.5991C83.5887 35.0952 83.2333 34.5366 82.9794 33.9272C82.7255 33.3257 82.5887 32.685 82.5575 31.9897L81.9481 18.4197C81.9051 17.5135 81.5262 16.6931 80.9169 16.0916C80.3153 15.4901 79.495 15.1033 78.5888 15.0604L65.0188 14.451C64.3235 14.4198 63.6829 14.2831 63.0813 14.0292C62.4719 13.7753 61.9251 13.4198 61.4094 12.955L51.3784 3.79877C50.7065 3.17768 49.8511 2.87299 48.9995 2.87299C48.1479 2.87299 47.2925 3.17768 46.6206 3.79877L36.5896 12.955C36.0857 13.4198 35.5271 13.7753 34.9177 14.0292C34.3161 14.2831 33.6755 14.4198 32.9802 14.451L19.4102 15.0604C18.504 15.1034 17.6836 15.4823 17.0821 16.0916C16.4805 16.6932 16.0938 17.5135 16.0509 18.4197L15.4415 31.9897C15.4103 32.685 15.2736 33.3256 15.0196 33.9272C14.7657 34.5366 14.4103 35.0834 13.9454 35.5991L4.78925 45.6301C4.16816 46.302 3.86346 47.1574 3.86346 48.009C3.86346 48.8606 4.16816 49.716 4.78925 50.3879L13.9454 60.4189C14.4103 60.9228 14.7658 61.4814 15.0196 62.0908C15.2736 62.6924 15.4103 63.333 15.4415 64.0283L16.0509 77.5983C16.0939 78.5046 16.4728 79.3249 17.0821 79.9264C17.6837 80.528 18.504 80.9147 19.4102 80.9576L32.9802 81.567C33.6755 81.5983 34.3161 81.735 34.9177 81.9889C35.5271 82.2428 36.0739 82.5983 36.5896 83.0631Z" fill="black"/>
</g>
<defs>
<clipPath id="clip0_1020_114">
<rect width="96" height="96" fill="white" transform="matrix(-1 0 0 -1 96 96)"/>
</clipPath>
</defs>
</svg>
