<svg width="87" height="85" viewBox="0 0 87 85" fill="none" xmlns="http://www.w3.org/2000/svg">
<g clip-path="url(#clip0_1020_53)">
<mask id="mask0_1020_53" style="mask-type:luminance" maskUnits="userSpaceOnUse" x="0" y="0" width="87" height="85">
<path d="M0.0820312 0.25H86.332V84.25H0.0820312V0.25Z" fill="white"/>
</mask>
<g mask="url(#mask0_1020_53)">
<path d="M83.9648 41.3555C82.6641 40.5508 81.6211 39.5391 80.9922 38.1016C79.2812 34.1563 76.3281 31.7617 71.9961 31.082C72.2031 30.8125 72.3867 30.5742 72.5625 30.3242C74.6172 27.2891 75.1328 24.0273 73.9336 20.5469C73.2148 18.457 73.2344 16.4336 74.0391 14.3984C74.2773 13.7812 74.4609 13.1406 74.668 12.5C74.2969 12.3945 74.0273 12.5703 73.7812 12.6758C71.0781 13.7891 68.4375 13.8633 65.6602 12.6758C63.1016 11.582 60.4219 11.8594 57.8516 12.9531C56.9023 13.3555 56.0352 13.9141 55.1875 14.543C54.2383 10.4219 52.168 7.60547 48.6914 6.13672C46.4609 5.19922 44.9453 3.66797 43.9023 1.5625C43.6875 1.12891 43.5 0.664062 43.1094 0.25C42.6836 0.992188 42.293 1.67578 41.9102 2.37891C40.9844 4.10156 39.6523 5.37109 37.8047 6.05469C37.0117 6.34375 36.2891 6.78906 35.6094 7.29297C33.1836 9.10156 31.7383 11.5195 31.1406 14.4609C31.0898 14.4609 31.0586 14.4844 31.0352 14.4727C27.4258 11.8164 23.5586 11.375 19.4297 13.0977C17.7812 13.7891 16.1094 13.7891 14.418 13.2539C13.5273 12.9766 12.6406 12.6953 11.6406 12.375C11.8594 13.0156 12.0039 13.5742 12.2187 14.0898C13.1367 16.332 13.1797 18.5625 12.3828 20.8672C11.2812 24.0664 11.8477 27.0937 13.6016 29.9336C13.8477 30.3242 14.1172 30.707 14.3867 31.1016C10.4023 31.75 7.43359 33.7461 5.76953 37.3789C4.84375 39.4258 3.48047 40.9141 1.53125 41.9258C1.03516 42.1836 0.519531 42.4297 0.0859375 42.875C0.789061 43.2656 1.4375 43.6289 2.08594 43.9922C3.58203 44.8047 4.75781 45.9336 5.53516 47.4922C7.34766 51.1484 10.2266 53.3984 14.3125 54.0078C14.3047 54.0703 14.3047 54.1211 14.2812 54.1641C11.7656 57.4492 11.2383 61.0742 12.6211 64.9883C13.2109 66.6719 13.1562 68.3555 12.6094 70.0273C12.3125 70.9258 12.0039 71.8242 11.7031 72.7227C12.0312 72.8281 12.25 72.6719 12.457 72.5898C15.2305 71.4023 17.9766 71.1445 20.8555 72.4141C22.6797 73.2188 24.6719 73.0938 26.6211 72.6602C28.3359 72.2813 29.8398 71.4727 31.2344 70.3164C31.2852 70.5039 31.3242 70.6055 31.3555 70.7188C32.1914 74.2422 34.1406 76.9492 37.5039 78.375C39.7773 79.332 41.3555 80.8516 42.418 83.0195C42.625 83.4453 42.7891 83.8984 43.2109 84.25C43.4297 83.8906 43.6445 83.5781 43.8203 83.2383C44.9648 80.957 46.6367 79.3242 49.0625 78.3203C51.8789 77.1641 53.6719 74.9141 54.6836 72.043C54.8711 71.5273 54.9922 70.9883 55.1484 70.4414C55.25 70.4844 55.332 70.4922 55.3867 70.5352C58.7891 73.168 62.4922 73.6133 66.4883 72.0742C68.3555 71.3516 70.2539 71.3281 72.1523 71.9609C72.832 72.1875 73.5117 72.4336 74.1914 72.6719C74.3477 72.7227 74.5117 72.8594 74.6562 72.7031C74.7617 72.5781 74.6562 72.4336 74.6055 72.3008C74.4414 71.793 74.2852 71.2891 74.1016 70.793C73.2969 68.707 73.2031 66.6289 74.0078 64.5117C74.6992 62.6836 74.7383 60.7852 74.3906 58.875C74.0469 57.0469 73.2148 55.4258 72.0156 53.9766C72.3789 53.9063 72.6875 53.8555 72.9844 53.7812C73.3164 53.7109 73.6445 53.625 73.9648 53.5234C77.0937 52.5625 79.332 50.5508 80.7539 47.6367C81.5391 46.0352 82.6953 44.8281 84.2227 43.9688C84.8906 43.5977 85.5508 43.2266 86.3242 42.793C85.4687 42.2773 84.7148 41.8203 83.9648 41.3555ZM81.3633 43.3398C79.9805 44 78.8047 44.9102 78.125 46.3242C75.832 51.0977 70.418 52.4297 65.9609 50.6719C65.5391 50.5078 65.1133 50.3125 64.6797 50.1758C64.2578 50.0547 63.8555 50.125 63.6484 50.5898C63.4414 51.0547 63.5547 51.4492 63.957 51.7383C64.4336 52.0859 65 52.2344 65.5273 52.4688C68.5703 53.7812 70.6328 55.9492 71.3984 59.2461C71.707 60.5977 71.6953 61.9609 71.1719 63.2305C70.3047 65.3086 70.5 67.332 71.2734 69.3672C71.3047 69.4492 71.3164 69.543 71.3555 69.7188C70.1289 69.3359 68.9727 68.9648 67.7344 68.9648C67.0117 68.9648 66.2891 68.9648 65.5977 69.2422C60.0391 71.5273 55.6523 68.2109 53.7148 63.9453C53.5703 63.6367 53.457 63.3242 53.3125 63.0156C53.0742 62.4766 52.6836 62.2305 52.0938 62.4453C51.4961 62.6758 51.3828 63.1406 51.5586 63.6875C51.8242 64.5352 52.1992 65.3594 52.3125 66.2461C52.6914 69.2422 52.1055 71.9609 49.9258 74.1992C49.5352 74.6055 49.1133 74.9648 48.5977 75.1914C46.2539 76.2266 44.3047 77.6797 43.3047 80.1094C43.0352 80.0859 43.0273 79.9219 42.9648 79.8086C42.0664 77.9687 40.7539 76.5234 38.8359 75.7383C34.3711 73.9023 33.1094 68.6445 34.4414 64.8125C34.5547 64.4922 34.668 64.1836 34.7734 63.8633C34.9687 63.2852 34.957 62.7578 34.2969 62.4688C33.7383 62.2305 33.3164 62.4258 33.0195 63.1484C32.4492 64.4922 31.7383 65.7422 30.7891 66.8555C28.418 69.6562 24.8984 70.7109 21.4609 69.4688C19.5352 68.7773 17.6875 68.9219 15.7969 69.5C15.5703 69.5742 15.3555 69.6367 15.0352 69.7383C15.4258 68.707 15.7266 67.7461 15.8516 66.7539C15.9727 65.8047 15.8711 64.8633 15.5 63.9766C13.6133 59.3906 16.2734 54.7305 20.1406 52.8008C20.6562 52.543 21.2031 52.3359 21.7305 52.0977C21.9492 51.9961 22.1758 51.9023 22.3711 51.7695C22.8047 51.4766 22.9883 51.0859 22.7227 50.5898C22.4727 50.1133 22.0508 50.0742 21.6055 50.2305C20.5859 50.6016 19.5937 51.0156 18.5234 51.2422C14.5078 52.0781 10.4531 50.3437 8.55469 46.7773C7.61719 45.0117 6.2539 43.8477 4.48047 43.0703C4.39844 43.0313 4.30469 42.9883 4.22266 42.9492C4.20312 42.9375 4.20312 42.9062 4.16016 42.8242C4.57422 42.5742 4.99609 42.3281 5.41797 42.0781C6.66797 41.3242 7.73047 40.3672 8.29687 39.0117C10.4961 33.7852 16.418 32.8047 20.8125 34.5703C21.082 34.6758 21.3398 34.8086 21.6172 34.8906C22.0078 35.0039 22.4102 34.9844 22.6289 34.5625C22.8438 34.1367 22.8242 33.7227 22.4414 33.3711C22.0938 33.0547 21.6484 32.9297 21.2266 32.7422C18.4805 31.5352 16.3984 29.6758 15.3672 26.7852C14.7969 25.1914 14.6328 23.5508 15.2617 21.9609C16.0586 19.9766 16.0352 18.0664 15.1992 16.125C15.1289 15.9609 15.0977 15.7734 15.0234 15.4961C15.9023 15.7227 16.6875 16.0117 17.5234 16.125C18.625 16.2695 19.6992 16.2266 20.7188 15.793C25.7852 13.625 30.4805 16.3711 32.5039 20.6602C32.7383 21.1641 32.9336 21.6797 33.1719 22.1758C33.3906 22.6328 33.75 22.8164 34.2461 22.6641C34.7187 22.5078 34.9453 22.1875 34.918 21.6797C34.8945 21.3086 34.7305 20.9883 34.6055 20.6484C33.4609 17.375 33.6172 14.2461 35.6914 11.3516C36.2891 10.5156 37.0117 9.76172 37.9375 9.34766C40.2383 8.32813 42.1367 6.91016 43.0664 4.45312C43.4375 4.59766 43.4688 4.88672 43.582 5.10547C44.4297 6.61328 45.5 7.91406 47.1328 8.58594C52.3008 10.7656 53.25 16.1562 51.8477 20.3711C51.7109 20.7617 51.5781 21.1445 51.4453 21.5352C51.2695 22.0625 51.4648 22.4453 51.9492 22.6641C52.4336 22.8789 52.8672 22.7539 53.125 22.2891C53.3945 21.8047 53.6016 21.2891 53.8477 20.793C55.1797 18.0977 57.1289 16.1055 60.1211 15.3086C61.7617 14.875 63.3906 14.9375 64.9492 15.5859C66.9609 16.4336 68.9297 16.3828 70.9336 15.6406C71.0469 15.5977 71.1602 15.5664 71.2734 15.5352C71.293 15.5352 71.3164 15.5469 71.418 15.5859C71.2617 16.0508 71.1172 16.5273 70.9531 16.9922C70.5 18.3359 70.3437 19.707 70.9023 21.0312C72.9023 25.8008 70.0977 30.0586 66.7031 32C66.0547 32.3711 65.3633 32.6484 64.6797 32.9688C64.4023 33.1055 64.1016 33.207 63.875 33.4453C63.5781 33.7539 63.4844 34.1055 63.6602 34.5078C63.8438 34.9414 64.2148 35.0352 64.6172 34.9414C64.9922 34.8516 65.3398 34.6758 65.7031 34.5508C69.3438 33.3125 72.8125 33.4453 75.9453 35.9453C76.5234 36.3984 77 36.957 77.3398 37.5977C78.8359 40.3867 78.8867 40.7578 82.3125 42.8555C82.0547 43.1211 81.6836 43.1836 81.3633 43.3398Z" fill="black"/>
</g>
<path d="M30.1601 31.0195C30.1289 30.9063 30.1289 30.8516 30.1093 30.8203C27.8906 28.6328 25.5586 26.5859 22.8047 25.0781C22.039 24.6563 21.2031 24.418 20.3086 24.4805C19.3789 24.5508 18.6172 24.9141 18.2148 25.7813C17.8125 26.6289 18.1406 27.3945 18.6679 28.0625C19.1328 28.6523 19.707 29.1289 20.3398 29.5508C23.3906 31.5859 26.7539 31.3477 30.1601 31.0195Z" fill="black"/>
<path d="M64.2695 30.4414C65.6914 29.8828 67.0117 29.1289 67.8984 27.8281C68.7969 26.5039 68.2695 25.1016 66.7539 24.625C65.8789 24.3477 65.0195 24.4688 64.2148 24.8203C61.0508 26.207 58.582 28.5195 56.0469 30.9648C59.3477 31.4609 62.1211 31.2852 64.2695 30.4414Z" fill="black"/>
<path d="M30.914 30.0156C31.0469 27.5156 31.3789 25.0391 30.5117 22.6328C29.9531 21.0625 29.1601 19.6367 27.7578 18.6641C26.3203 17.6641 24.6601 18.4063 24.3945 20.1211C24.25 21.043 24.4453 21.8984 24.8476 22.7148C26.3008 25.5977 28.5078 27.8594 30.914 30.0156Z" fill="black"/>
<path d="M46.0078 14.4922C45.3867 15.082 45.0586 15.8164 44.8086 16.6094C43.8828 19.6172 43.6133 22.7031 43.6641 26.0391C45.2422 24.3242 47.0078 23.0742 48.2969 21.3398C49.586 19.6055 50.2774 17.6836 49.7305 15.5039C49.2774 13.707 47.3672 13.2031 46.0078 14.4922Z" fill="black"/>
<path d="M56.2109 54.4336C56.1914 54.6914 56.3555 54.7852 56.4688 54.8867C58.4609 56.6836 60.543 58.3477 62.9063 59.6367C63.8672 60.1641 64.8672 60.5586 65.9922 60.4961C66.9492 60.4336 67.7344 60.0938 68.1484 59.1836C68.5703 58.2422 68.2188 57.4492 67.5899 56.7344C66.8164 55.8789 65.8672 55.2813 64.8047 54.8555C61.9766 53.7109 59.0899 54.1445 56.2109 54.4336Z" fill="black"/>
<path d="M61.0703 23.5703C61.5352 22.8281 61.8555 22.0312 62 21.1641C62.1836 20.082 61.7188 18.9141 60.9063 18.4492C60.1211 18.0039 59.0899 18.1992 58.1914 19.0078C57.2734 19.8242 56.625 20.8359 56.1367 21.9414C54.9922 24.5312 55.2109 27.25 55.4258 30.1602C57.6016 28.0547 59.5625 26.0078 61.0703 23.5703Z" fill="black"/>
<path d="M30.3867 54.4219C27.5 54.1758 24.8555 53.7617 22.2383 54.6289C20.8438 55.0937 19.586 55.7734 18.6446 56.9414C18.1094 57.625 17.8203 58.3789 18.2422 59.2266C18.6563 60.0625 19.3907 60.4141 20.2969 60.4648C21.3399 60.5156 22.2969 60.2383 23.2071 59.7617C24.9922 58.832 26.6016 57.6562 28.1367 56.375C28.8399 55.7852 29.5313 55.1641 30.3867 54.4219Z" fill="black"/>
<path d="M42.6758 25.9766C42.7774 23.1992 42.5391 20.6289 41.9922 18.0781C41.7461 16.9219 41.4141 15.7852 40.6719 14.832C40.043 14.0273 39.25 13.6367 38.207 13.875C37.1641 14.1211 36.7305 14.8633 36.5664 15.8359C36.2578 17.7031 36.8438 19.3477 37.8477 20.8867C39.0938 22.8398 40.961 24.2109 42.6758 25.9766Z" fill="black"/>
<path d="M43.6758 58.8203C43.5938 61.9609 43.9024 64.875 44.7383 67.7266C44.9844 68.5625 45.3359 69.3555 45.9141 70.0273C46.5352 70.75 47.3086 71.0625 48.2344 70.832C49.1524 70.5977 49.5977 69.9023 49.7734 69.0156C50.1758 66.8984 49.4844 65.082 48.1836 63.4375C46.875 61.7773 45.2227 60.4648 43.6758 58.8203Z" fill="black"/>
<path d="M14.7266 40.1992C15.457 40.7773 16.3164 41.0976 17.2109 41.3047C18.8125 41.6758 20.4414 41.8945 22.0703 41.9961C23.2891 42.0781 24.5078 42.0078 25.8906 42.0078C24.2578 40.3242 22.8672 38.6094 20.9766 37.4219C19.2969 36.3594 17.4687 35.8398 15.4687 36.3359C14.582 36.5547 13.9414 37.0508 13.7656 38C13.6016 38.9414 14.0234 39.6406 14.7266 40.1992Z" fill="black"/>
<path d="M60.5039 41.9961C60.793 42.2148 61.0703 42.1641 61.3281 42.1523C63.2578 42.1094 65.1758 41.9766 67.0859 41.6992C68.5586 41.4805 70.0469 41.2852 71.3242 40.4063C72.3359 39.7148 72.7383 38.8047 72.4922 37.8242C72.2656 36.9375 71.3867 36.3164 70.2305 36.2148C68.6719 36.0781 67.2188 36.3789 65.8477 37.1445C63.6992 38.3516 62.1836 40.2305 60.5039 41.9961Z" fill="black"/>
<path d="M30.8086 55.3398C30.2031 55.918 29.5938 56.5 28.9961 57.0859C27.6211 58.4414 26.3516 59.8945 25.2891 61.5195C24.6406 62.5078 24.2578 63.582 24.3945 64.793C24.5469 66.1641 25.8047 66.9805 27.1172 66.5664C27.9844 66.2891 28.6016 65.6914 29.1406 65C31.3867 62.1055 31.1406 58.75 30.9961 55.4258C30.9453 55.3828 30.8711 55.3633 30.8086 55.3398Z" fill="black"/>
<path d="M56.707 56.4453C56.3125 56.0625 55.9336 55.6602 55.3438 55.332C55.1797 58.4609 54.8906 61.5273 56.6953 64.2852C57.2305 65.1016 57.8203 65.8438 58.6875 66.332C60.2149 67.1875 61.8555 66.2773 61.9453 64.5352C62.0078 63.3984 61.6172 62.4063 61.0195 61.4766C59.8203 59.6055 58.3047 57.9844 56.707 56.4453Z" fill="black"/>
<path d="M42.4883 58.9766C41.5391 59.9688 40.5899 60.9492 39.6406 61.9414C39.4258 62.168 39.1992 62.3867 38.9805 62.6133C38.125 63.5117 37.4141 64.5039 36.961 65.6602C36.5274 66.7539 36.3281 67.8789 36.5781 69.0586C36.9375 70.7617 38.5899 71.4102 40.0235 70.4219C40.6836 69.9648 41.086 69.3047 41.375 68.582C42.5938 65.5234 42.6445 62.3008 42.7266 59.0898C42.6445 59.0586 42.5703 59.0195 42.4883 58.9766Z" fill="black"/>
<path d="M25.8985 43.2148C25.6524 43.1836 25.5391 43.1523 25.4336 43.1523C23 43.1133 20.5664 43.2461 18.1602 43.6914C16.9531 43.918 15.7578 44.207 14.7461 44.9727C13.9414 45.5898 13.5821 46.418 13.8711 47.3984C14.1485 48.3398 14.9336 48.7305 15.8516 48.8359C16.8399 48.9492 17.8203 48.8672 18.7891 48.6172C21.875 47.8242 23.6797 45.375 25.8985 43.2148Z" fill="black"/>
<path d="M69.6328 44C66.7031 43.2266 63.6992 43.1445 60.4727 43.1445C62.0898 44.8164 63.4844 46.418 65.2812 47.5742C67.0039 48.6797 68.8906 49.207 70.9219 48.7227C72.625 48.3164 73.1016 46.5 71.8828 45.2305C71.2617 44.5898 70.4805 44.2188 69.6328 44Z" fill="black"/>
<path d="M77.918 42.0898C75.8242 42.0469 73.7305 42.0703 71.625 42.0898C71.2617 42.0898 70.8594 42.2148 70.9023 42.7109C70.9453 43.1758 71.3476 43.1758 71.6641 43.1758C72.7266 43.1953 73.7891 43.1836 74.8437 43.1836V43.1953C75.832 43.1953 76.8242 43.207 77.8047 43.1953C78.2461 43.1953 78.9062 43.2578 78.9492 42.7422C79.0234 42.2031 78.3398 42.1016 77.918 42.0898Z" fill="black"/>
<path d="M15.4375 42.6484C15.4687 41.9453 14.7656 42.0781 14.332 42.0703C12.5273 42.0391 10.7226 42.0391 8.90624 42.0469C8.59764 42.0469 8.27733 42.1016 7.98827 42.1953C7.71874 42.2774 7.33983 42.3984 7.37889 42.6992C7.42186 43.0313 7.80467 43.1211 8.12108 43.1758C8.26561 43.1953 8.41014 43.1836 8.55467 43.1836C9.49608 43.1836 10.4336 43.1836 11.3711 43.1836C11.3711 43.1758 11.3711 43.1758 11.3711 43.1641C12.3633 43.1641 13.3555 43.1836 14.332 43.1524C14.7578 43.1445 15.418 43.2656 15.4375 42.6484Z" fill="black"/>
<path d="M22.8359 23.5391C23.2461 23.7148 23.3711 23.4063 23.4844 23.0547C23.3828 22.9102 23.3008 22.7227 23.1758 22.5898C21.668 21.1016 20.1719 19.6055 18.6445 18.1406C18.3359 17.8398 17.8945 17.3555 17.4805 17.7773C17.0156 18.2422 17.6367 18.6055 17.9258 18.8828C19.3476 20.3164 20.8008 21.7109 22.2578 23.1172C22.4336 23.2813 22.6172 23.457 22.8359 23.5391Z" fill="black"/>
<path d="M22.8242 61.5898C22.5859 61.6094 22.4336 61.7656 22.2773 61.9101C20.8125 63.3476 19.3477 64.7812 17.8828 66.2187C17.6758 66.4219 17.5 66.6523 17.3984 66.9297C17.3242 67.1367 17.3672 67.3203 17.5117 67.457C17.6445 67.582 17.832 67.5586 17.9844 67.4766C18.1523 67.3828 18.3164 67.2812 18.4492 67.1484C19.9961 65.6172 21.5352 64.0898 23.0742 62.5625C23.207 62.4258 23.3516 62.293 23.3906 62.0234C23.3516 61.7539 23.1953 61.5586 22.8242 61.5898Z" fill="black"/>
<path d="M43.2422 15.7617C43.6641 15.7422 43.7148 15.3516 43.7148 15C43.7148 13.9336 43.7148 12.8828 43.7148 11.8164C43.7383 11.8164 43.7578 11.8164 43.7891 11.8164C43.7891 10.8281 43.7891 9.84375 43.7891 8.85547C43.7891 8.49219 43.7461 8.12891 43.543 7.8086C43.3125 7.44922 43.0781 7.42969 42.8398 7.8086C42.7266 7.9961 42.6445 8.19141 42.6445 8.41797C42.6523 10.6094 42.6523 12.8008 42.6641 14.9883C42.6641 15.3711 42.7578 15.793 43.2422 15.7617Z" fill="black"/>
<path d="M63.4414 61.6094C63.082 61.7461 62.9179 61.9922 63.1328 62.375C63.2773 62.6211 63.4844 62.8281 63.6914 63.0352C65.0508 64.3672 66.4023 65.6992 67.7851 67.0117C68.0976 67.3008 68.4765 67.8711 68.9101 67.4062C69.3047 66.9922 68.8281 66.5586 68.5078 66.2461C67.0625 64.832 65.5976 63.4297 64.1562 62.0234C63.957 61.8359 63.7422 61.6836 63.4414 61.6094Z" fill="black"/>
<path d="M43.1602 68.9141C42.7461 68.9336 42.6445 69.2734 42.6445 69.6445C42.6523 70.7109 42.6445 71.7617 42.6445 72.8281C42.6445 73.8906 42.6445 74.9453 42.6445 76.0078C42.6445 76.4102 42.7266 76.918 43.1406 76.9492C43.6328 76.9805 43.6641 76.4336 43.7578 76.0391C43.7695 75.9883 43.7695 75.9453 43.7695 75.8945C43.7578 73.7969 43.7383 71.7031 43.7148 69.6055C43.7148 69.2344 43.5742 68.8906 43.1602 68.9141Z" fill="black"/>
<path d="M63.957 23.2617C65.5898 21.8242 67.0937 20.2656 68.6211 18.7266C68.7773 18.5742 68.9219 18.4062 69.0039 18.2109C69.1289 17.9102 69.0234 17.6953 68.6719 17.6758C68.332 17.6953 68.0664 17.8789 67.8398 18.0977C66.3008 19.5938 64.7031 21.0312 63.2656 22.6211C63.0508 22.8594 62.7187 23.1172 63.1016 23.4688C63.4844 23.8281 63.7305 23.4687 63.957 23.2617Z" fill="black"/>
<path d="M41.4492 43.5469C41.4297 43.5 41.418 43.4609 41.3984 43.4258C41.0742 42.8047 41.0469 42.1836 41.3828 41.5664C41.4766 41.3906 41.4414 41.3086 41.2734 41.2227C40.1914 40.6484 39.125 40.0547 38.0352 39.5C37.4453 39.1992 36.957 38.8125 36.6406 38.2148C36.0664 37.1172 35.4961 36.0117 34.8906 34.8516C35.3516 34.9063 35.125 34.582 35.25 34.4336C35.707 34.6133 36.1758 34.7773 36.625 34.9805C37.4844 35.375 38.332 35.7891 39.1758 36.1992C39.5508 36.3828 39.8125 36.6797 40.0117 37.0508C40.6367 38.2188 41.2734 39.3867 41.9062 40.5547C41.9531 40.6406 42.0039 40.7266 42.0625 40.832C42.707 40.4844 43.3594 40.4531 44.0234 40.8359C44.1953 40.5273 44.3672 40.2344 44.5273 39.9336C45.0586 38.957 45.5898 37.9844 46.1133 37.0039C46.2773 36.6914 46.5039 36.4336 46.8086 36.2852C47.8125 35.8008 48.8203 35.3242 49.832 34.8594C50.1797 34.6992 50.543 34.5742 50.9258 34.418C50.9258 34.5664 50.9258 34.6836 50.9258 34.8203C51.0195 34.832 51.0938 34.8437 51.2031 34.8555C51.0352 35.2148 50.8984 35.5664 50.7227 35.8984C50.2461 36.7812 49.7656 37.6602 49.2695 38.5312C49.0547 38.9062 48.7148 39.1523 48.332 39.3516C47.1367 39.9766 45.9414 40.6172 44.7461 41.2539C44.707 41.2734 44.668 41.3047 44.6367 41.332C44.7305 41.6133 44.8359 41.8867 44.9102 42.1602C45.0156 42.5664 44.9258 42.9609 44.7461 43.3203C44.6602 43.4961 44.707 43.5703 44.8555 43.6523C45.9531 44.2422 47.0391 44.8594 48.1523 45.4219C48.7109 45.7031 49.1953 46.0508 49.4961 46.6133C50.0664 47.6797 50.6211 48.7539 51.1836 49.8242C51.207 49.8672 51.2109 49.9219 51.2227 49.9883C51.1211 50.0078 51.0312 50.0234 50.9297 50.043C50.9297 50.1445 50.9297 50.2422 50.9297 50.3789C50.8125 50.3359 50.7031 50.3047 50.6055 50.2656C49.4258 49.7383 48.2422 49.2109 47.0703 48.6758C46.5703 48.4492 46.25 48.0508 45.9922 47.5625C45.418 46.457 44.8086 45.3711 44.2109 44.2812C44.1836 44.2227 44.1406 44.1719 44.0977 44.1094C43.4102 44.5078 42.7266 44.5234 42.0234 44.1016C41.9727 44.1758 41.9219 44.25 41.8789 44.3281C41.3164 45.3672 40.7383 46.4062 40.2031 47.4648C39.8945 48.0742 39.4648 48.5195 38.8633 48.793C37.6641 49.3359 36.457 49.8672 35.2383 50.4102C35.1953 50.0547 35.1953 50.0547 34.9453 49.9844C34.9492 49.957 34.9453 49.9219 34.957 49.8945C35.4844 48.6914 36.0625 47.5156 36.7812 46.4141C37.082 45.9492 37.5156 45.6797 37.9844 45.4297C39.0898 44.8516 40.1836 44.25 41.2812 43.6562C41.3359 43.6289 41.3867 43.5898 41.4492 43.5469ZM41.3945 40.7109C41.375 40.6289 41.3711 40.5938 41.3594 40.5703C40.8633 39.6484 40.375 38.7266 39.8672 37.8164C39.7656 37.625 39.6055 37.4492 39.4375 37.3125C38.9961 36.9453 38.3477 37.0352 37.9922 37.4844C37.6289 37.9414 37.6953 38.5352 38.1523 38.9219C38.2734 39.0312 38.4141 39.125 38.5547 39.2031C39.4297 39.6836 40.3125 40.1563 41.1914 40.6289C41.2422 40.6563 41.2969 40.6719 41.3945 40.7109ZM44.6953 40.6367C44.7148 40.6523 44.7266 40.668 44.7461 40.6797C44.793 40.6641 44.8359 40.6484 44.8789 40.6289C45.4258 40.3477 45.9727 40.0703 46.5117 39.7734C47.0039 39.5039 47.5195 39.2461 47.9688 38.9102C48.5781 38.4492 48.4453 37.5508 47.7578 37.207C47.2227 36.9414 46.6641 37.1211 46.3164 37.7109C45.9219 38.375 45.5625 39.0547 45.1914 39.7344C45.0234 40.0312 44.8594 40.332 44.6953 40.6367ZM44.8008 44.2266C44.7852 44.2422 44.7734 44.2617 44.7578 44.2773C45.1094 44.9219 45.4492 45.5742 45.8125 46.2148C46.0391 46.6133 46.2617 47.0156 46.5352 47.375C46.793 47.7031 47.1602 47.8203 47.5742 47.707C48.0078 47.582 48.2773 47.2773 48.3516 46.832C48.4258 46.3984 48.1953 46.1016 47.875 45.8633C47.7773 45.7891 47.668 45.7227 47.5586 45.668C46.6992 45.207 45.8359 44.75 44.9727 44.293C44.9141 44.2617 44.8555 44.2461 44.8008 44.2266ZM41.3555 44.2773C41.3359 44.2578 41.3203 44.2383 41.3047 44.2188C41.2227 44.2539 41.1406 44.2852 41.0664 44.3281C40.25 44.7656 39.4336 45.2031 38.6172 45.6484C38.4453 45.7422 38.2773 45.8516 38.1289 45.9766C37.793 46.2539 37.6914 46.6328 37.8164 47.0039C37.9648 47.4219 38.3203 47.707 38.7227 47.7383C39.2656 47.7773 39.6016 47.4766 39.8477 47.043C40.2617 46.3047 40.6562 45.5547 41.0586 44.8125C41.1641 44.6367 41.2578 44.457 41.3555 44.2773Z" fill="black"/>
<mask id="mask1_1020_53" style="mask-type:luminance" maskUnits="userSpaceOnUse" x="26" y="37" width="15" height="11">
<path d="M26.1992 37H41V48H26.1992V37Z" fill="white"/>
</mask>
<g mask="url(#mask1_1020_53)">
<path d="M40.6289 42.4531C40.4375 42.625 40.2734 42.7891 40.0976 42.9336C39.0508 43.7969 37.9258 44.5078 36.5625 44.7187C35.793 44.8437 35.0351 44.707 34.2812 44.5234C33.1562 44.25 32.1055 43.7812 31.0898 43.2148C30.414 42.8398 30.6484 42.8359 30.0156 43.2656C29.1367 43.8555 28.3437 44.5508 27.7734 45.4687C27.3984 46.0664 27.1484 46.7148 27.0976 47.4258C27.0859 47.5703 27.043 47.6211 26.9062 47.6172C26.7851 47.6133 26.6601 47.6172 26.539 47.6172C26.2226 47.6172 26.2031 47.5977 26.2422 47.2773C26.4023 45.9219 26.9961 44.7891 27.9726 43.8672C28.4961 43.3711 29.0664 42.9258 29.6406 42.4336C29.5781 42.375 29.5 42.2969 29.414 42.2344C28.5156 41.5547 27.664 40.832 27.0508 39.8633C26.5547 39.0742 26.2578 38.2227 26.2305 37.2812C26.2226 37.0703 26.289 36.9961 26.4961 37.0156C26.6797 37.0352 26.918 36.9727 27.0351 37.0664C27.1289 37.1445 27.0703 37.4062 27.0937 37.5859C27.2187 38.543 27.6601 39.3516 28.2578 40.0781C28.8594 40.8047 29.5937 41.3711 30.3633 41.8984C30.4961 41.9883 30.5937 41.9531 30.7187 41.8828C31.832 41.2422 32.9883 40.7227 34.2344 40.3945C36.0508 39.9141 37.7109 40.2305 39.2422 41.3086C39.6406 41.5898 40.0156 41.8984 40.3945 42.1992C40.4687 42.2539 40.5195 42.3281 40.6289 42.4531ZM31.4023 42.4414C32.7265 43.2383 34.1367 43.6289 35.6601 43.4727C36.914 43.3437 38.1445 43.0703 39.2734 42.4414C37.8945 41.75 36.4531 41.3984 34.9336 41.3867C33.6562 41.375 32.5039 41.7969 31.4023 42.4414Z" fill="black"/>
</g>
<mask id="mask2_1020_53" style="mask-type:luminance" maskUnits="userSpaceOnUse" x="37" y="25" width="12" height="15">
<path d="M37 25.5352H49V40H37V25.5352Z" fill="white"/>
</mask>
<g mask="url(#mask2_1020_53)">
<path d="M40.8242 35.0352C40.8359 33.5391 41.2773 32.1523 41.9219 30.8281C42.1016 30.4531 42.3164 30.1016 42.5 29.7266C42.5469 29.6367 42.5586 29.4648 42.5039 29.3945C41.6562 28.2734 40.6875 27.2812 39.3594 26.7695C38.9101 26.5937 38.4141 26.5312 37.9336 26.4492C37.7578 26.4219 37.6836 26.375 37.7031 26.1953C37.7109 26.1211 37.7031 26.0469 37.7031 25.9687C37.7031 25.5352 37.707 25.5469 38.1523 25.5898C39.9687 25.7539 41.3047 26.7617 42.4766 28.0859C42.6094 28.2422 42.75 28.3945 42.8711 28.5586C43.0039 28.7422 43.0937 28.7344 43.2461 28.5625C43.6484 28.1055 44.0586 27.6484 44.5 27.2305C45.3945 26.3828 46.4414 25.832 47.6562 25.6289C47.6992 25.6211 47.7383 25.6172 47.7773 25.6133C48.4375 25.5547 48.4922 25.6055 48.3984 26.2891C48.3906 26.3477 48.3086 26.4336 48.2539 26.4375C46.4453 26.582 45.1211 27.5859 44.0117 28.9492C43.4219 29.6797 43.4687 29.4297 43.9062 30.2383C44.5469 31.4219 45.0156 32.6602 45.2266 34.0039C45.4648 35.5352 45.1211 36.9336 44.3125 38.2187C44.0039 38.7148 43.6445 39.1875 43.2851 39.6523C43.082 39.918 43.0117 39.9102 42.793 39.6523C41.8828 38.5781 41.1836 37.3906 40.8828 35.9844C40.8516 35.8281 40.8281 35.668 40.8164 35.5117C40.8164 35.3516 40.8242 35.1914 40.8242 35.0352ZM43.0156 38.4805C44.3906 36.9531 44.3789 31.6211 43.0234 30.4414C42.3281 31.6055 42.0078 32.875 42.0234 34.2187C42.0312 35.6992 42.332 37.1172 43.0156 38.4805Z" fill="black"/>
</g>
<mask id="mask3_1020_53" style="mask-type:luminance" maskUnits="userSpaceOnUse" x="45" y="37" width="15" height="11">
<path d="M45 37H59.9492V48H45V37Z" fill="white"/>
</mask>
<g mask="url(#mask3_1020_53)">
<path d="M56.4531 42.4531C56.9336 42.8438 57.3906 43.1914 57.8203 43.5742C58.7226 44.3789 59.4297 45.3281 59.7304 46.5352C59.8125 46.8711 59.8515 47.2188 59.9179 47.6172C59.6172 47.6172 59.3789 47.625 59.1406 47.6094C59.0976 47.6055 59.0273 47.5352 59.0234 47.4883C58.8906 45.9688 58.0625 44.8594 56.9726 43.9219C56.6133 43.6133 56.207 43.3516 55.8281 43.0625C55.664 42.9375 55.5273 42.9414 55.3398 43.0352C54.5117 43.4453 53.6875 43.8711 52.832 44.2148C51.9531 44.5664 51.0351 44.7617 50.082 44.7656C49.0117 44.7695 48.0703 44.3516 47.1953 43.7813C46.6758 43.4414 46.1992 43.0273 45.707 42.6445C45.5312 42.5117 45.5234 42.3711 45.6953 42.2148C47.0664 40.9961 48.5664 40.0781 50.4687 40.1875C51.7109 40.2578 52.8906 40.6211 54.0156 41.1523C54.5 41.3789 54.957 41.6523 55.4375 41.8906C55.5234 41.9336 55.6758 41.9531 55.7422 41.9102C56.8359 41.1719 57.8437 40.3438 58.4922 39.1484C58.8086 38.5547 59.0312 37.9336 59.0195 37.25C59.0195 37.1133 59.0664 37.0469 59.2031 37.0508C59.2344 37.0508 59.2656 37.0508 59.3008 37.0469C59.9414 37.0117 59.9492 37.0391 59.8594 37.7148C59.6797 39.0391 59.0703 40.125 58.1367 41.0273C57.6679 41.4766 57.1484 41.8711 56.6484 42.2891C56.5898 42.3359 56.5312 42.3906 56.4531 42.4531ZM46.8594 42.4531C48.4414 43.1992 50.082 43.6484 51.832 43.4688C52.8554 43.3594 53.8203 43.0078 54.7539 42.4375C53.6094 41.7539 52.4336 41.375 51.1719 41.375C49.664 41.3711 48.2226 41.7344 46.8594 42.4531Z" fill="black"/>
</g>
<mask id="mask4_1020_53" style="mask-type:luminance" maskUnits="userSpaceOnUse" x="37" y="45" width="12" height="15">
<path d="M37 45H49V59.2852H37V45Z" fill="white"/>
</mask>
<g mask="url(#mask4_1020_53)">
<path d="M43.0547 55.9961C42.7696 56.3242 42.5157 56.625 42.25 56.9219C41.4453 57.8047 40.5469 58.5625 39.4024 58.9336C38.9258 59.0859 38.418 59.1367 37.918 59.2266C37.7617 59.2578 37.6953 59.1758 37.7032 59.0117C37.7149 58.8164 37.6563 58.5664 37.75 58.4297C37.8203 58.3242 38.086 58.3555 38.2657 58.3281C39.5977 58.1328 40.6485 57.4102 41.5664 56.4492C41.8946 56.1055 42.1797 55.7148 42.4844 55.3477C42.6055 55.2031 42.5625 55.0859 42.4766 54.9414C41.7657 53.7734 41.2266 52.5313 40.9492 51.1758C40.6289 49.5977 40.875 48.125 41.7149 46.7656C42.0625 46.207 42.4766 45.6914 42.8672 45.1563C42.9961 44.9805 43.1289 44.9883 43.2696 45.1484C44.1758 46.1914 44.9219 47.3242 45.2149 48.7109C45.418 49.6797 45.3086 50.6445 45.0899 51.6055C44.8203 52.7773 44.3321 53.8555 43.7227 54.8789C43.5821 55.1094 43.5977 55.2656 43.7539 55.4766C44.4961 56.4805 45.3516 57.3516 46.4805 57.9023C47.0157 58.1602 47.5782 58.3281 48.1758 58.3398C48.3516 58.3437 48.4375 58.3984 48.418 58.5898C48.4141 58.625 48.418 58.6562 48.418 58.6875C48.418 59.2773 48.4063 59.2852 47.8242 59.1992C46.5547 59.0195 45.4492 58.4727 44.5274 57.5781C44.0782 57.1406 43.6719 56.6602 43.2461 56.1992C43.1836 56.1445 43.1289 56.0859 43.0547 55.9961ZM43.0821 54.3633C44.0391 52.7656 44.2774 51.0664 44 49.2734C43.8399 48.2578 43.6133 47.2656 43.0703 46.3516C41.7071 48.1719 41.7188 52.9219 43.0821 54.3633Z" fill="black"/>
</g>
<path d="M39.9062 35.3906C39.3672 35.125 38.8828 34.8633 38.3867 34.6367C37.5273 34.25 36.6601 33.8828 35.8008 33.5078C35.7109 33.4687 35.625 33.4258 35.5351 33.3828C35.0508 33.1602 34.7617 32.7969 34.6054 32.2617C34.3672 31.4414 34.2578 30.6172 34.3242 29.7695C34.375 29.1367 34.6484 28.582 34.9844 28.043C35.457 27.2773 36.1367 27.0312 36.9804 27.0508C38.6133 27.0937 39.9687 27.7187 41.0703 28.9492C41.457 29.3789 41.5117 29.8203 41.2422 30.3398C40.6601 31.4648 40.2851 32.668 40.0742 33.9258C40.0117 34.3008 39.9883 34.6836 39.9453 35.0625C39.9375 35.1641 39.9219 35.2617 39.9062 35.3906ZM38.8633 33.9375C38.8984 33.8711 38.9258 33.8437 38.9297 33.8125C39.0976 32.9687 39.3008 32.125 39.4219 31.2734C39.6289 29.8828 38.3281 29.2773 37.4609 29.5273C36.3554 29.8516 35.9297 31.1523 36.6797 32.1172C37.0469 32.5937 37.539 32.9727 38 33.3672C38.2578 33.5898 38.5703 33.7461 38.8633 33.9375Z" fill="black"/>
<path d="M46.2227 35.3828C46.1406 33.5313 45.6289 31.8281 44.836 30.207C44.6328 29.793 44.7071 29.418 44.9922 29.0742C45.7774 28.1172 46.7813 27.5078 47.9649 27.2149C48.6875 27.0352 49.4141 26.9961 50.1406 27.1797C50.6367 27.3047 50.8867 27.6992 51.1485 28.0742C51.9492 29.2188 51.9688 30.4805 51.6524 31.7813C51.6094 31.9414 51.5547 32.1016 51.5196 32.2617C51.3789 32.9688 50.8594 33.2852 50.2696 33.5508C48.961 34.1289 47.6641 34.7344 46.3594 35.3281C46.3321 35.3477 46.2891 35.3594 46.2227 35.3828ZM47.2071 33.9492C47.5235 33.7539 47.7813 33.6055 48.0235 33.4414C48.586 33.0547 49.1367 32.6484 49.5117 32.0547C50.0235 31.25 49.8594 30.2656 49.1133 29.7539C48.586 29.3906 48.0156 29.375 47.4688 29.6953C46.9375 30.0078 46.6602 30.4883 46.7149 31.1289C46.7461 31.4688 46.7696 31.8086 46.8321 32.1445C46.9375 32.7305 47.0703 33.3086 47.2071 33.9492Z" fill="black"/>
<path d="M46.2461 49.4141C46.4805 49.5352 46.6914 49.6641 46.9102 49.7656C48.0547 50.2773 49.1992 50.7812 50.3399 51.293C50.5196 51.3711 50.6953 51.4609 50.8633 51.5586C51.1602 51.7305 51.3477 51.9844 51.4571 52.3242C51.7539 53.2617 51.9492 54.2109 51.7891 55.1992C51.6485 56.0898 51.2149 56.8242 50.5508 57.4102C50.3906 57.5508 50.1367 57.6211 49.9219 57.6484C48.0391 57.9141 46.4414 57.332 45.1446 55.918C44.6328 55.3594 44.6133 55.0625 44.9414 54.3867C45.6953 52.8477 46.1328 51.2227 46.2188 49.5C46.2188 49.4805 46.2266 49.4648 46.2461 49.4141ZM47.25 50.8555C47.2031 50.9531 47.1719 50.9922 47.1641 51.0391C47.0156 51.8164 46.8516 52.5859 46.7344 53.3672C46.6719 53.793 46.6797 54.2305 46.9453 54.6172C47.4297 55.3281 48.336 55.543 49.0469 55.1094C49.7578 54.6797 50.0117 53.7656 49.6446 52.9961C49.3906 52.4609 48.9649 52.082 48.5117 51.7383C48.1055 51.4336 47.6836 51.1562 47.25 50.8555Z" fill="black"/>
<path d="M39.9102 49.4141C39.9414 49.7422 39.9609 50.0352 39.9961 50.332C40.1445 51.7461 40.5469 53.0859 41.1758 54.3555C41.5469 55.1055 41.5391 55.3242 40.957 55.9297C39.6016 57.3516 37.9727 57.9727 36.0234 57.625C35.5898 57.5469 35.3672 57.1992 35.125 56.8984C34.2852 55.8633 34.1758 54.6641 34.4141 53.3984C34.4844 53.0273 34.6055 52.6602 34.6992 52.2891C34.7734 51.9844 34.9375 51.7266 35.2109 51.5898C35.7031 51.3437 36.2031 51.1289 36.7031 50.8984C37.6992 50.4375 38.6914 49.9727 39.6836 49.5117C39.7461 49.4766 39.8125 49.4531 39.9102 49.4141ZM39.4414 53.4453C39.3164 52.832 39.1328 51.918 38.9414 51.0078C38.9023 50.8242 38.7812 50.9102 38.6953 50.9688C38.1797 51.3438 37.6445 51.7031 37.1641 52.1289C36.8789 52.3828 36.6367 52.7227 36.457 53.0703C36.1602 53.6563 36.3008 54.3633 36.7422 54.8281C37.1953 55.3047 37.9062 55.457 38.5039 55.207C39.082 54.9609 39.4375 54.4102 39.4414 53.4453Z" fill="black"/>
<path d="M36.0547 39.1914C35.6445 39.2578 35.2539 39.3203 34.8594 39.3906C33.6602 39.6016 32.5156 39.9922 31.4375 40.5625C30.8203 40.8867 30.3008 40.8438 29.7617 40.418C28.5977 39.5 27.8711 38.3203 27.6641 36.8242C27.6289 36.5859 27.6367 36.3398 27.6094 36.1016C27.5586 35.6758 27.7148 35.3438 27.9844 35.0352C28.9297 33.9492 30.1133 33.5195 31.5039 33.7305C31.9688 33.7969 32.4258 33.9492 32.8828 34.0742C33.2344 34.1641 33.5 34.3906 33.6719 34.707C34.0117 35.3398 34.3203 35.9922 34.6602 36.6328C35.0938 37.4414 35.543 38.2422 35.9883 39.0508C36.0078 39.0898 36.0273 39.1367 36.0547 39.1914ZM34.5469 38.2383C34.1289 37.707 33.7852 37.2109 33.3789 36.7773C33.0586 36.4375 32.6953 36.1211 32.3008 35.8867C31.7148 35.5391 31.0195 35.6563 30.5508 36.0977C30.0625 36.5547 29.9102 37.2148 30.1523 37.832C30.4063 38.4727 30.9922 38.9063 31.6563 38.8711C32.0977 38.8438 32.5391 38.7344 32.9766 38.6367C33.4688 38.5234 33.9648 38.3867 34.5469 38.2383Z" fill="black"/>
<path d="M50.0664 39.1953C50.2773 38.8594 50.4961 38.5469 50.6758 38.2109C51.2109 37.1992 51.75 36.1914 52.2383 35.1562C52.5703 34.4531 53.0781 34.0586 53.8203 33.8867C54.793 33.6602 55.75 33.5547 56.707 33.9531C57.418 34.2539 57.9805 34.7266 58.3828 35.3906C58.4375 35.4844 58.4883 35.6055 58.4961 35.7148C58.5703 37.6992 57.8477 39.3008 56.2734 40.4883C55.8203 40.832 55.3633 40.8906 54.8359 40.6172C53.3672 39.8594 51.8047 39.3984 50.1641 39.2305C50.1406 39.2305 50.125 39.2187 50.0664 39.1953ZM51.6641 38.2031C51.7305 38.2461 51.75 38.2656 51.7656 38.2734C52.6172 38.4727 53.457 38.7266 54.3164 38.8555C55.4375 39.0195 56.3242 37.9336 56.0312 36.8398C55.7656 35.8477 54.6055 35.3633 53.7266 35.9414C53.2695 36.2422 52.8711 36.6602 52.4961 37.0703C52.1836 37.4102 51.9414 37.8203 51.6641 38.2031Z" fill="black"/>
<path d="M36.0039 45.707C35.6758 46.2656 35.3477 46.7851 35.0625 47.3242C34.6758 48.0586 34.3281 48.8125 33.957 49.5547C33.7695 49.9336 33.6211 50.3672 33.2305 50.5703C31.3203 51.5664 29.1055 51.3906 27.8164 49.5586C27.6602 49.3359 27.6016 49.1016 27.6016 48.832C27.6016 46.9023 28.4297 45.4297 29.9609 44.3398C30.3906 44.0351 30.8242 44.0156 31.2969 44.2656C32.5352 44.918 33.8398 45.3789 35.2266 45.6055C35.4766 45.6445 35.7266 45.6719 36.0039 45.707ZM34.4375 46.6601C34.3516 46.625 34.3086 46.6055 34.2656 46.5937C33.4648 46.4062 32.6641 46.2031 31.8555 46.043C30.9414 45.8633 30.043 46.6445 30.043 47.6016C30.043 48.2344 30.332 48.7109 30.8789 48.9961C31.4727 49.3047 32.0586 49.2266 32.582 48.8242C33.3398 48.2461 33.8867 47.4766 34.4375 46.6601Z" fill="black"/>
<path d="M50.1328 45.7227C50.4922 45.668 50.8242 45.6172 51.1602 45.5547C52.4648 45.3203 53.6914 44.8516 54.8711 44.2461C55.3203 44.0117 55.7305 44.0313 56.1367 44.3203C57.7852 45.4805 58.625 47.0547 58.5 49.1172C58.4922 49.2422 58.4219 49.375 58.3555 49.4805C57.7695 50.418 56.9062 50.9219 55.8555 51.1211C54.8633 51.3086 53.9375 51.0273 53.043 50.6445C52.8086 50.543 52.6094 50.2656 52.4688 50.0234C52.168 49.5078 51.9336 48.957 51.6484 48.4336C51.1797 47.5781 50.6875 46.7305 50.2109 45.8789C50.1875 45.832 50.168 45.7891 50.1328 45.7227ZM51.7383 46.6094C51.7383 46.668 51.7305 46.6875 51.7383 46.6992C52.2656 47.5625 52.8633 48.3594 53.7031 48.9336C54.0078 49.1406 54.3672 49.2148 54.7344 49.1602C55.4492 49.0586 56.0039 48.5 56.0742 47.832C56.1523 47.0703 55.7344 46.3867 55.0391 46.1133C54.5664 45.9258 54.1055 46.0352 53.6445 46.1484C53.0117 46.2969 52.3789 46.4531 51.7383 46.6094Z" fill="black"/>
</g>
<defs>
<clipPath id="clip0_1020_53">
<rect width="87" height="85" fill="white"/>
</clipPath>
</defs>
</svg>
