<svg width="94" height="94" viewBox="0 0 94 94" fill="none" xmlns="http://www.w3.org/2000/svg">
<g clip-path="url(#clip0_1020_120)">
<path d="M65.766 93.328C65.5824 93.328 65.3949 93.2928 65.2152 93.2186L1.57422 67.1136C1.21875 66.9691 0.933603 66.6839 0.785163 66.3285C0.636723 65.973 0.636723 65.5706 0.781257 65.2152L26.8863 1.57416C27.0308 1.21869 27.3159 0.93354 27.6714 0.7851C28.0269 0.63666 28.4292 0.63276 28.7847 0.781194L92.4257 26.8862C93.1679 27.1909 93.5234 28.0424 93.2187 28.7846L67.1137 92.4256C66.8832 92.9881 66.3403 93.328 65.766 93.328ZM4.024 64.973L64.973 89.973L89.973 29.024L29.028 4.024L4.024 64.973Z" fill="black"/>
<path d="M28.543 93.453C27.9727 93.453 27.4336 93.1171 27.1992 92.5585L0.656196 29.1015C0.507756 28.746 0.507756 28.3437 0.65229 27.9882C0.79682 27.6327 1.08198 27.3476 1.43745 27.1991L64.8984 0.65611C65.2539 0.50767 65.6563 0.50767 66.0117 0.652204C66.3672 0.796734 66.6524 1.08189 66.8008 1.43736L93.3398 64.8984C93.6484 65.6405 93.3007 66.4922 92.5586 66.8007L29.1016 93.3437C28.918 93.4179 28.7266 93.453 28.543 93.453ZM3.902 29.32L29.32 90.097L90.097 64.679L64.679 3.902L3.902 29.32Z" fill="black"/>
<path d="M68.816 70.273H25.183C24.3783 70.273 23.7299 69.6207 23.7299 68.8199L23.726 25.1829C23.726 24.3782 24.3784 23.7298 25.1791 23.7298H68.8161C69.6208 23.7298 70.2692 24.3821 70.2692 25.1829V68.8199C70.2731 69.6207 69.6207 70.273 68.816 70.273ZM26.636 67.3628H67.363V26.6358H26.636V67.3628Z" fill="black"/>
<path d="M47.672 63.781C43.0079 63.781 38.6251 61.9646 35.328 58.6677C28.5233 51.863 28.5233 40.7887 35.328 33.9837C36.8749 32.4368 38.6678 31.2103 40.6561 30.3392C41.203 30.097 41.8436 30.2181 42.2694 30.6439C42.6913 31.0658 42.8124 31.7064 42.5741 32.2572C40.1522 37.7845 41.3436 44.1162 45.6132 48.3862C49.8828 52.6562 56.2152 53.851 61.7422 51.4253C62.293 51.1831 62.9297 51.3042 63.3555 51.73C63.7774 52.1519 63.8985 52.7925 63.6602 53.3433C62.7852 55.3355 61.5586 57.1285 60.0157 58.6714C56.7188 61.9683 52.3363 63.781 47.672 63.781ZM38.7462 34.84C38.2697 35.2111 37.8165 35.6134 37.3829 36.0431C31.711 41.715 31.711 50.9411 37.3829 56.6131C40.129 59.3592 43.7813 60.8748 47.6679 60.8748C51.5545 60.8748 55.207 59.3631 57.9529 56.6131C58.3826 56.1834 58.7849 55.7264 59.156 55.2537C57.0701 55.6482 54.9216 55.66 52.7966 55.281C49.281 54.6482 46.0857 52.9763 43.5544 50.4451C41.0192 47.9099 39.3474 44.7146 38.7185 41.2029C38.3396 39.074 38.3517 36.926 38.7462 34.84Z" fill="black"/>
</g>
<defs>
<clipPath id="clip0_1020_120">
<rect width="94" height="94" fill="white"/>
</clipPath>
</defs>
</svg>
