<svg width="506" height="506" viewBox="0 0 506 506" fill="none" xmlns="http://www.w3.org/2000/svg">
<g clip-path="url(#clip0_1020_135)">
<path d="M240.37 222.51L222.51 240.37V265.63L240.37 283.49H265.63L283.49 265.63V240.37L265.63 222.51H240.37ZM275.49 262.31L262.32 275.48H243.69L230.52 262.31V243.68L243.69 230.51H262.32L275.49 243.68V262.31Z" fill="black"/>
<path d="M483.2 230.55V198.8H451.45L431.65 179V151L454.1 128.55L431.65 106.1V74.34H399.9L377.45 51.89L355 74.34H327L307.2 54.54V22.8H275.45L253 0.339996L230.55 22.8H198.8V54.55L179 74.34H151L128.55 51.89L106.1 74.34H74.34V106.09L51.89 128.54L74.34 151V179L54.54 198.8H22.8V230.55L0.339966 253L22.79 275.45V307.2H54.54L74.34 327V355L51.89 377.45L74.34 399.9V431.65H106.09L128.54 454.1L151 431.66H179L198.8 451.46V483.21H230.55L253 505.66L275.45 483.21H307.2V451.46L327 431.66H355L377.45 454.11L399.9 431.66H431.65V399.9L454.1 377.45L431.66 355V327L451.46 307.2H483.21V275.45L505.66 253L483.2 230.55ZM456.32 253L448.32 261V272.32H437L429 280.32L421 272.32H414L433.31 253L413.99 233.68H420.99L428.99 225.68L436.99 233.68H448.31V245L456.32 253ZM422 253L409.68 265.32V261L401.68 253L409.68 245V240.69L422 253ZM401.68 241.68L390.36 253L401.68 264.32V273.32L393.02 281.98H382.8V272.14L363.66 253L382.8 233.86V224.02H393.02L401.68 232.68V241.68ZM374.8 303.45L365.27 312.98L342.27 289.98H374.79V303.45H374.8ZM404.77 377.45L396.77 385.45V396.77H385.45L377.45 404.77L369.45 396.77H358.13V385.45L353.18 380.5H380.5V353.18L385.45 358.13H396.77V369.45L404.77 377.45ZM355.08 372.5L358.13 369.45V358.13H369.45L372.5 355.08V372.5H355.08ZM372.5 343.77L366.13 350.13H350.13V366.13L343.76 372.5H331.51L324.28 365.27L331.24 358.31V331.24H333.37H358.3L365.26 324.28L372.49 331.51V343.77H372.5ZM323.25 422.59L307.21 406.55V383.86L323.25 399.9V422.59ZM303.45 374.8H289.98V342.28L312.98 365.28L303.45 374.8ZM273.32 401.68H264.32L253 390.37L241.68 401.69H232.68L224.02 393.03V382.8H233.86L253 363.66L272.14 382.8H281.98V393.03L273.32 401.68ZM225.68 429L233.68 421V414L253 433.31L272.32 413.99V420.99L280.32 428.99L272.32 436.99V448.31H261L253 456.31L245 448.31H233.68V437L225.68 429ZM253 422L240.68 409.68H245L253 401.68L261 409.68H265.32L253 422ZM202.55 374.8L193.02 365.27L216.02 342.27V374.79H202.55V374.8ZM162.23 372.5L155.87 366.14V350.14H139.87L133.5 343.77V331.52L140.73 324.29L147.69 331.25H172.1H174.75V335.62V358.32L181.71 365.28L174.48 372.51H162.23V372.5ZM101.23 377.45L109.23 369.45V358.13H120.55L125.5 353.18V380.5H152.82L147.87 385.45V396.77H136.55L128.55 404.77L120.55 396.77H109.23V385.45L101.23 377.45ZM133.5 372.5V355.08L136.55 358.13H147.87V369.45L150.92 372.5H133.5ZM131.2 289.98H163.72L140.72 312.98L131.19 303.45V289.98H131.2ZM49.68 253L57.68 245V233.68H69L77 225.68L85 233.68H92L72.69 253L92.01 272.32H85.01L77.01 280.32L69.01 272.32H57.69V261L49.68 253ZM84 253L96.32 240.68V245L104.32 253L96.32 261V265.31L84 253ZM104.32 264.32L115.64 253L104.32 241.68V232.68L112.98 224.02H123.2V233.86L142.34 253L123.2 272.14V281.98H112.98L104.32 273.32V264.32ZM131.2 202.55L140.73 193.02L163.73 216.02H131.2V202.55ZM101.23 128.55L109.23 120.55V109.23H120.55L128.55 101.23L136.55 109.23H147.87V120.55L152.82 125.5H125.5V152.82L120.55 147.87H109.23V136.55L101.23 128.55ZM150.92 133.5L147.87 136.55V147.87H136.55L133.5 150.92V133.5H150.92ZM133.5 162.23L139.87 155.87H155.87V139.87L162.24 133.5H174.49L181.72 140.73L174.76 147.69V170.24V174.75H169.94H147.7L140.74 181.71L133.51 174.48V162.23H133.5ZM182.75 83.41L198.79 99.45V122.14L182.75 106.1V83.41ZM202.55 131.2H216.02V163.72L193.02 140.72L202.55 131.2ZM232.68 104.32H241.68L253 115.63L264.32 104.31H273.32L281.98 112.97V123.2H272.14L253 142.34L233.86 123.2H224.02V112.97L232.68 104.32ZM280.32 77L272.32 85V92L253 72.69L233.68 92.01V85.01L225.68 77.01L233.68 69.01V57.68H245L253 49.68L261 57.68H272.32V69L280.32 77ZM253 84L265.32 96.32H261L253 104.32L245 96.32H240.68L253 84ZM303.45 131.2L312.98 140.73L289.98 163.73V131.2H303.45ZM343.77 133.5L350.13 139.86V155.86H366.13L372.5 162.23V174.48L365.27 181.71L358.31 174.75H336.7H331.25V171.94V147.68L324.29 140.72L331.52 133.49H343.77V133.5ZM404.77 128.55L396.77 136.55V147.87H385.45L380.5 152.82V125.5H353.18L358.13 120.55V109.23H369.45L377.45 101.23L385.45 109.23H396.77V120.55L404.77 128.55ZM372.5 133.5V150.92L369.45 147.87H358.13V136.55L355.08 133.5H372.5ZM323.25 323.25H289.98V289.98H323.25V323.25ZM230.43 327.86L253 305.29L275.57 327.86L253 350.43L230.43 327.86ZM182.75 182.75H216.02V216.02H182.75V182.75ZM275.57 178.14L253 200.71L230.43 178.14L253 155.57L275.57 178.14ZM281.98 322.96L253 293.98L224.02 322.96V281.98H183.04L212.02 253L183.65 224.63C183.75 224.43 183.84 224.23 183.9 224.02H224.02V183.04L253 212.02L281.93 183.09C281.95 183.09 281.96 183.09 281.98 183.09V224.02H322.96L293.98 253L322.96 281.98H281.98V322.96ZM323.25 216.02H289.98V182.75H323.25V216.02ZM200.71 253L178.14 275.57L155.57 253L178.14 230.43L200.71 253ZM182.75 289.98H216.02V323.25H182.75V289.98ZM305.29 253L327.86 230.43L350.43 253L327.86 275.57L305.29 253ZM331.25 182.75H336.7H355L359.61 187.36L331.24 215.73V182.75H331.25ZM323.25 151V171.94V174.75H290.27L318.64 146.38L323.25 151ZM281.98 171.73L281.23 172.48L257.71 148.96L275.46 131.21H281.99V171.73H281.98ZM230.55 131.2L248.3 148.95L224.78 172.47L224.03 171.72V131.2H230.55ZM215.73 174.75H182.75V170.24V151L187.36 146.39L215.73 174.75ZM151 182.75H174.75V215.73L146.38 187.36L151 182.75ZM171.73 224.02L172.48 224.77L148.96 248.29L131.21 230.54V224.01H171.73V224.02ZM131.2 275.45L148.95 257.7L172.47 281.22L171.72 281.97H131.2V275.45ZM174.75 290.27V323.25H172.1H151L146.39 318.64L174.75 290.27ZM182.75 355V335.62V331.25H215.73L187.36 359.62L182.75 355ZM224.02 334.27L224.77 333.52L248.29 357.04L230.54 374.79H224.01V334.27H224.02ZM275.45 374.8L257.7 357.05L281.22 333.53L281.97 334.28V374.8H275.45ZM290.27 331.25H323.25V355L318.64 359.61L290.27 331.25ZM355 323.25H331.25V290.27L359.62 318.64L355 323.25ZM334.27 281.98L333.52 281.23L357.04 257.71L374.79 275.46V281.99H334.27V281.98ZM374.8 230.55L357.05 248.3L333.53 224.78L334.28 224.03H374.8V230.55ZM342.27 216.02L365.27 193.02L374.8 202.55V216.02H342.27ZM331.25 82.34H358.32L377.46 63.2L396.6 82.34H423.67V109.41L442.81 128.55L423.67 147.69V174.76H396.6L377.46 193.9L370.94 187.38L380.51 177.81V164.15L388.78 155.88H404.78V139.88L416.1 128.56L404.78 117.24V101.24H388.78L377.46 89.92L366.14 101.24H350.14V117.24L341.87 125.51H328.21L318.64 135.08L312.12 128.56L331.26 109.42V82.34H331.25ZM422.59 182.75L406.55 198.79H383.86L399.9 182.75H422.59ZM307.2 122.14V99.45L323.24 83.41V106.1L307.2 122.14ZM206.8 57.86V30.8H233.87L253 11.66L272.14 30.8H299.21V57.87L318.34 77L299.2 96.14V123.21H289.97V109.67L280.31 100.01V88.32L291.64 77L280.32 65.68V49.68H264.32L253 38.37L241.68 49.69H225.68V65.69L214.36 77L225.68 88.32V100.01L216.02 109.67V123.21H206.79V96.14L187.66 77L206.8 57.86ZM63.21 128.55L82.35 109.41V82.34H109.42L128.56 63.2L147.7 82.34H174.77V109.41L193.91 128.55L187.39 135.07L177.82 125.5H164.16L155.89 117.23V101.23H139.89L128.57 89.91L117.25 101.23H101.25V117.23L89.93 128.55L101.25 139.87V155.87H117.25L125.52 164.14V177.8L135.09 187.37L128.57 193.89L109.43 174.75H82.34V147.68L63.21 128.55ZM122.14 198.8H99.45L83.41 182.76H106.1L122.14 198.8ZM30.8 299.2V272.13L11.66 253L30.8 233.86V206.8H57.87L77 187.66L96.14 206.8H123.21V216.03H109.67L100.01 225.69H88.32L77 214.37L65.68 225.69H49.68V241.69L38.36 253L49.68 264.32V280.32H65.68L77 291.64L88.32 280.32H100.01L109.67 289.98H123.21V299.21H96.14L77 318.34L57.86 299.2H30.8ZM122.14 307.2L106.1 323.24H83.41L99.45 307.2H122.14ZM174.75 423.66H147.68L128.54 442.8L109.4 423.66H82.34V396.59L63.2 377.45L82.34 358.31V331.24H109.41L128.55 312.1L135.07 318.62L125.5 328.19V341.85L117.23 350.12H101.23V366.12L89.91 377.44L101.23 388.76V404.76H117.23L128.55 416.08L139.87 404.76H155.87V388.76L164.14 380.49H177.8L187.37 370.92L193.89 377.44L174.75 396.58V423.66ZM198.8 383.86V406.55L182.76 422.59V399.9L198.8 383.86ZM299.2 448.14V475.21H272.13L253 494.34L233.86 475.2H206.8V448.13L187.66 429L206.8 409.86V382.8H216.03V396.34L225.69 406V417.69L214.36 429L225.68 440.32V456.32H241.68L253 467.63L264.32 456.31H280.32V440.31L291.64 429L280.32 417.68V405.99L289.98 396.33V382.8H299.21V409.87L318.34 429L299.2 448.14ZM442.79 377.45L423.65 396.59V423.66H396.58L377.44 442.8L358.3 423.66H331.23V396.59L312.09 377.45L318.61 370.93L328.18 380.5H341.84L350.11 388.77V404.77H366.11L377.43 416.09L388.75 404.77H404.75V388.77L416.07 377.45L404.75 366.13V350.13H388.75L380.48 341.86V328.2L370.91 318.63L377.43 312.11L396.57 331.25H423.64V358.32L442.79 377.45ZM383.86 307.2H406.55L422.59 323.24H399.9L383.86 307.2ZM475.2 272.14V299.21H448.13L429 318.34L409.86 299.2H382.8V289.97H396.34L406 280.31H417.69L429 291.63L440.32 280.31H456.32V264.31L467.64 253L456.32 241.68V225.68H440.32L429 214.36L417.68 225.68H405.99L396.33 216.02H382.8V206.79H409.87L429 187.66L448.14 206.8H475.21V233.87L494.34 253L475.2 272.14Z" fill="black"/>
</g>
<defs>
<clipPath id="clip0_1020_135">
<rect width="506" height="506" fill="white"/>
</clipPath>
</defs>
</svg>
