<svg width="94" height="94" viewBox="0 0 94 94" fill="none" xmlns="http://www.w3.org/2000/svg">
<g clip-path="url(#clip0_1020_127)">
<path d="M79.558 60.254L93.208 46.6L79.558 32.95V13.65H60.258L46.6 0L32.954 13.65H13.654V32.955L0 46.6L13.649 60.253V79.559H32.955L46.6 93.208L60.253 79.559H79.558V60.254ZM85.012 46.6L79.558 52.054V41.15L85.012 46.6ZM73.762 57.85L57.853 73.763H35.353L19.443 57.853V35.353L35.354 19.446H57.854L73.762 35.354V57.85ZM73.762 19.442V27.154L66.051 19.442H73.762ZM46.6 8.2L52.054 13.654H41.15L46.6 8.2ZM19.445 19.446H27.158L19.445 27.159V19.446ZM8.2 46.6L13.653 41.147V52.057L8.2 46.6ZM19.445 73.763V66.05L27.159 73.763H19.445ZM46.6 85.012L41.147 79.559H52.057L46.6 85.012ZM66.05 73.763L73.762 66.051V73.763H66.05Z" fill="black"/>
<path d="M51.4 54.125C48.6036 53.6358 46.0262 52.2961 44.019 50.2886C42.0119 48.2811 40.6726 45.7034 40.184 42.907C39.5354 39.4373 40.2135 35.8505 42.084 32.857C42.1611 32.729 42.1945 32.5794 42.1792 32.4308C42.1639 32.2822 42.1007 32.1426 41.9992 32.033C41.8976 31.9234 41.7632 31.8498 41.6161 31.8233C41.4691 31.7968 41.3174 31.8188 41.184 31.886C38.9922 32.9015 37.0686 34.4161 35.5674 36.3087C34.0663 38.2012 33.0292 40.419 32.5393 42.7844C32.0493 45.1499 32.1202 47.5972 32.7462 49.9303C33.3721 52.2634 34.5358 54.4175 36.1439 56.22C37.7521 58.0225 39.7601 59.4233 42.007 60.3103C44.2538 61.1973 46.6772 61.5457 49.083 61.3276C51.4888 61.1096 53.81 60.3312 55.8609 59.0547C57.9117 57.7783 59.6351 56.0393 60.893 53.977C60.9653 53.851 60.9955 53.7052 60.9793 53.5608C60.9631 53.4165 60.9012 53.281 60.8028 53.1742C60.7043 53.0674 60.5743 52.9947 60.4318 52.9668C60.2892 52.9389 60.1414 52.9572 60.01 53.019C57.3269 54.2812 54.3149 54.6681 51.4 54.125Z" fill="black"/>
<path d="M53.824 38.684C53.7055 38.6839 53.59 38.6463 53.4941 38.5767C53.3981 38.507 53.3267 38.4087 53.29 38.296L51.97 34.234C51.9336 34.121 51.8623 34.0224 51.7664 33.9525C51.6704 33.8826 51.5548 33.8449 51.436 33.8449C51.3173 33.8449 51.2016 33.8826 51.1057 33.9525C51.0097 34.0224 50.9384 34.121 50.902 34.234L49.582 38.3C49.5453 38.4127 49.4739 38.511 49.378 38.5807C49.2821 38.6503 49.1666 38.6879 49.048 38.688H44.777C44.6585 38.6879 44.543 38.7254 44.4471 38.795C44.3511 38.8646 44.2797 38.9628 44.2431 39.0755C44.2064 39.1883 44.2064 39.3097 44.2431 39.4224C44.2797 39.5351 44.3511 39.6334 44.447 39.703L47.9 42.21C47.9951 42.2804 48.0656 42.3789 48.1015 42.4917C48.1374 42.6044 48.1369 42.7256 48.1 42.838L46.787 46.9C46.7507 47.0127 46.7509 47.1341 46.7876 47.2467C46.8243 47.3593 46.8957 47.4574 46.9915 47.527C47.0873 47.5967 47.2027 47.6343 47.3211 47.6344C47.4395 47.6346 47.555 47.5974 47.651 47.528L51.106 45.017C51.2019 44.9472 51.3174 44.9097 51.436 44.9097C51.5546 44.9097 51.6701 44.9472 51.766 45.017L55.222 47.528C55.318 47.5974 55.4335 47.6346 55.5519 47.6344C55.6704 47.6343 55.7858 47.5967 55.8816 47.527C55.9774 47.4574 56.0487 47.3593 56.0854 47.2467C56.1222 47.1341 56.1224 47.0127 56.086 46.9L54.766 42.838C54.7288 42.7256 54.7282 42.6043 54.7641 42.4915C54.8 42.3787 54.8707 42.2802 54.966 42.21L58.425 39.7C58.5209 39.6304 58.5923 39.5321 58.629 39.4194C58.6656 39.3067 58.6656 39.1853 58.629 39.0725C58.5923 38.9598 58.5209 38.8616 58.425 38.792C58.3291 38.7224 58.2136 38.6849 58.095 38.685L53.824 38.684Z" fill="black"/>
</g>
<defs>
<clipPath id="clip0_1020_127">
<rect width="94" height="94" fill="white"/>
</clipPath>
</defs>
</svg>
